<svg xmlns="http://www.w3.org/2000/svg" width="60" height="60" viewBox="628 380 60 60" fill="none" stroke="currentColor" stroke-width="3" stroke-linecap="round" stroke-linejoin="round">
  <path d="M655.328 423.331L660.661 428.664C661.187 429.189 661.81 429.606 662.497 429.89C663.183 430.175 663.919 430.321 664.661 430.321C665.404 430.321 666.14 430.175 666.826 429.89C667.513 429.606 668.136 429.189 668.661 428.664C669.187 428.139 669.603 429.515 669.888 426.829C670.172 426.143 670.318 425.407 670.318 424.664C670.318 423.921 670.172 423.186 669.888 422.499C669.603 421.813 669.187 421.189 668.661 420.664"/>
  <path d="M663.334 415.335L670.001 422.001C671.061 423.062 672.5 423.658 674.001 423.658C675.501 423.658 676.94 423.062 678.001 422.001C679.061 420.94 679.657 419.502 679.657 418.001C679.657 416.501 679.061 415.062 678.001 414.001L667.654 403.655C666.154 402.157 664.121 401.315 662.001 401.315C659.881 401.315 657.847 402.157 656.347 403.655L654.001 406.001C652.94 407.062 651.501 407.658 650.001 407.658C648.5 407.658 647.061 407.062 646.001 406.001C644.94 404.94 644.344 403.502 644.344 402.001C644.344 400.501 644.94 399.062 646.001 398.001L653.494 390.508C655.927 388.082 659.099 386.536 662.509 386.116C665.919 385.696 669.372 386.425 672.321 388.188L673.574 388.935C674.709 389.62 676.059 389.858 677.361 389.601L682.001 388.668"/>
  <path d="M681.995 386L684.661 415.333H679.328"/>
  <path d="M633.995 386L631.328 415.333L648.661 432.667C649.722 433.728 651.161 434.324 652.661 434.324C654.162 434.324 655.601 433.728 656.661 432.667C657.722 431.606 658.318 430.167 658.318 428.667C658.318 427.166 657.722 425.728 656.661 424.667"/>
  <path d="M634 388.664H655.333"/>
</svg>
