<svg xmlns="http://www.w3.org/2000/svg" width="50" height="55" viewBox="633 5 50 55" fill="none" stroke="currentColor" stroke-width="3" stroke-linecap="round" stroke-linejoin="round">
  <path d="M679.339 34.6666C679.339 47.9999 670.005 54.6666 658.912 58.5332C658.331 58.7301 657.7 58.7207 657.125 58.5066C646.005 54.6666 636.672 47.9999 636.672 34.6666V15.9999C636.672 15.2927 636.953 14.6144 637.453 14.1143C637.953 13.6142 638.631 13.3332 639.339 13.3332C644.672 13.3332 651.339 10.1332 655.979 6.0799C656.543 5.59723 657.262 5.33203 658.005 5.33203C658.748 5.33203 659.467 5.59723 660.032 6.0799C664.699 10.1599 671.339 13.3332 676.672 13.3332C677.379 13.3332 678.057 13.6142 678.557 14.1143C679.058 14.6144 679.339 15.2927 679.339 15.9999V34.6666Z"/>
  <path d="M650 31.9974L655.333 37.3307L666 26.6641"/>
</svg>
