<svg xmlns="http://www.w3.org/2000/svg" width="50" height="55" viewBox="5 5 50 55" fill="none" stroke="currentColor" stroke-width="3" stroke-linecap="round" stroke-linejoin="round">
  <path d="M37.3281 5.33594V16.0026C37.3281 17.4171 37.89 18.7736 38.8902 19.7738C39.8904 20.774 41.247 21.3359 42.6615 21.3359H53.3281"/>
  <path d="M11.3865 56.0026C11.8535 56.8114 12.5246 57.4834 13.3328 57.9514C14.141 58.4194 15.058 58.6669 15.9919 58.6693H48.0052C49.4197 58.6693 50.7763 58.1074 51.7764 57.1072C52.7766 56.107 53.3385 54.7504 53.3385 53.3359V18.6693L40.0052 5.33594H16.0052C14.5907 5.33594 13.2342 5.89784 12.234 6.89803C11.2338 7.89823 10.6719 9.25478 10.6719 10.6693V18.6693"/>
  <path d="M24 48L20 44"/>
  <path d="M13.3281 45.3359C17.7464 45.3359 21.3281 41.7542 21.3281 37.3359C21.3281 32.9177 17.7464 29.3359 13.3281 29.3359C8.90985 29.3359 5.32812 32.9177 5.32812 37.3359C5.32812 41.7542 8.90985 45.3359 13.3281 45.3359Z"/>
</svg>
