<svg width="40" height="40" viewBox="0 0 40 40" fill="none" xmlns="http://www.w3.org/2000/svg">
<mask id="path-1-inside-1_1_498" fill="white">
<path d="M0 20C0 8.95431 8.95431 0 20 0C31.0457 0 40 8.95431 40 20C40 31.0457 31.0457 40 20 40C8.95431 40 0 31.0457 0 20Z"/>
</mask>
<path d="M0 20C0 8.95431 8.95431 0 20 0C31.0457 0 40 8.95431 40 20C40 31.0457 31.0457 40 20 40C8.95431 40 0 31.0457 0 20Z" fill="url(#paint0_linear_1_498)"/>
<path d="M0 20M40 20M40 20M0 20M20 0M40 20M20 40M0 20M20 40V39C9.50659 39 1 30.4934 1 20H0H-1C-1 31.598 8.40202 41 20 41V40ZM40 20H39C39 30.4934 30.4934 39 20 39V40V41C31.598 41 41 31.598 41 20H40ZM20 0V1C30.4934 1 39 9.50659 39 20H40H41C41 8.40202 31.598 -1 20 -1V0ZM20 0V-1C8.40202 -1 -1 8.40202 -1 20H0H1C1 9.50659 9.50659 1 20 1V0Z" fill="#FF8A00" fill-opacity="0.2" mask="url(#path-1-inside-1_1_498)"/>
<path d="M11.7183 20.2901C11.6489 20.103 11.6489 19.8972 11.7183 19.7101C12.3948 18.0699 13.5429 16.6676 15.0173 15.6808C16.4917 14.694 18.2259 14.1672 20 14.1672C21.7741 14.1672 23.5083 14.694 24.9827 15.6808C26.4571 16.6676 27.6053 18.0699 28.2817 19.7101C28.3511 19.8972 28.3511 20.103 28.2817 20.2901C27.6053 21.9302 26.4571 23.3325 24.9827 24.3193C23.5083 25.3061 21.7741 25.8329 20 25.8329C18.2259 25.8329 16.4917 25.3061 15.0173 24.3193C13.5429 23.3325 12.3948 21.9302 11.7183 20.2901Z" stroke="#FF8A00" stroke-width="1.66667" stroke-linecap="round" stroke-linejoin="round"/>
<path d="M20 22.5C21.3807 22.5 22.5 21.3807 22.5 20C22.5 18.6193 21.3807 17.5 20 17.5C18.6193 17.5 17.5 18.6193 17.5 20C17.5 21.3807 18.6193 22.5 20 22.5Z" stroke="#FF8A00" stroke-width="1.66667" stroke-linecap="round" stroke-linejoin="round"/>
<defs>
<linearGradient id="paint0_linear_1_498" x1="0" y1="0" x2="40" y2="40" gradientUnits="userSpaceOnUse">
<stop stop-color="#FF8A00" stop-opacity="0.2"/>
<stop offset="1" stop-color="#FFA500" stop-opacity="0.1"/>
</linearGradient>
</defs>
</svg>
